PathFileType	4	(X/Y/Z)	8_coords_data.trc
DataRate	CameraRate	NumFrames	NumMarkers	Units	OrigDataRate	OrigDataStartFrame	OrigNumFrames
30.0	30.0	8	21	m	30.0	1	62
Frame#	Time	THUMB_TIP	THUMB_IP	THUMB_MCP	THUMB_CMC	INDEX_TIP	INDEX_DIP	INDEX_PIP	INDEX_MCP	MIDDLE_TIP	MIDDLE_DIP	MIDDLE_PIP	MIDDLE_MCP	RING_TIP	RING_DIP	RING_PIP	RING_MCP	PINKY_TIP	PINKY_DIP	PINKY_PIP	PINKY_MCP	WRIST
X1	Y1	Z1	X2	Y2	Z2	X3	Y3	Z3	X4	Y4	Z4	X5	Y5	Z5	X6	Y6	Z6	X7	Y7	Z7	X8	Y8	Z8	X9	Y9	Z9	X10	Y10	Z10	X11	Y11	Z11	X12	Y12	Z12	X13	Y13	Z13	X14	Y14	Z14	X15	Y15	Z15	X16	Y16	Z16	X17	Y17	Z17	X18	Y18	Z18	X19	Y19	Z19	X20	Y20	Z20	X21	Y21	Z21
0	0.0	-0.010265199661254883	-0.08963050079345704	1.019489990234375	-0.013503899574279785	-0.06885099792480469	1.0367099609375	-0.015326499938964844	-0.047710498809814456	1.052760009765625	-0.01604599952697754	-0.019936599731445313	1.06152001953125	0.0027544100284576413	-0.0699030990600586	0.9441129760742187	-0.004858059883117676	-0.06228860092163086	0.961573974609375	-0.014773200035095215	-0.054628299713134765	0.9802689819335938	-0.02493829917907715	-0.03693000030517578	1.0124199829101563	-0.00047414499521255404	-0.03050979995727539	0.9214450073242187	-0.007880980014801026	-0.02730780029296875	0.94439501953125	-0.01788279914855957	-0.022766799926757814	0.9671580200195312	-0.025758100509643556	-0.015170900344848633	1.002260009765625	0.0060338501930236816	0.005792180061340332	0.929656005859375	-0.004976369857788086	0.006333970069885254	0.9530789794921875	-0.016732099533081055	0.006225599765777588	0.9749299926757813	-0.01806159973144531	0.005177750110626221	1.002469970703125	0.01757509994506836	0.04560459899902344	0.9637410278320313	0.005928979873657227	0.03815909957885742	0.9806160278320313	-0.00279190993309021	0.0321531982421875	0.9912020263671875	-0.01292959976196289	0.02051300048828125	1.0120700073242188	-0.04466389846801758	0.011684700012207032	1.0789100341796876
1	0.03333333333333333	-0.009784779548645019	-0.0897384033203125	1.0191799926757812	-0.012550399780273438	-0.06896399688720703	1.03556005859375	-0.016288999557495118	-0.047867599487304686	1.052219970703125	-0.018480600357055663	-0.01746310043334961	1.0642900390625	0.00159604001045227	-0.07019869995117188	0.943541015625	-0.005543620109558106	-0.06191009902954102	0.9623709716796875	-0.014496600151062012	-0.05347480010986328	0.9805709838867187	-0.023852800369262694	-0.035934700012207034	1.011969970703125	-0.00050747400522232	-0.03027829933166504	0.921260009765625	-0.0079826397895813	-0.027172800064086913	0.9442379760742188	-0.019468799591064453	-0.022985200881958007	0.969083984375	-0.027110700607299806	-0.015412799835205078	1.0051400146484375	0.00633420991897583	0.005819839954376221	0.9300579833984375	-0.004376140117645264	0.00624891996383667	0.9508309936523438	-0.016585100173950196	0.006434430122375488	0.9731959838867188	-0.02185300064086914	0.004210659980773926	1.0058200073242187	0.01688960075378418	0.04533219909667969	0.9646339721679688	0.005622920036315918	0.038403999328613284	0.9796610107421875	-0.0044309902191162105	0.03188540077209473	0.99227197265625	-0.01580669975280762	0.020790300369262694	1.0121799926757813	-0.04188859939575195	0.01110420036315918	1.075550048828125
2	0.06666666666666667	-0.009698470115661622	-0.08953179931640624	1.0189000244140625	-0.01248330020904541	-0.06879100036621094	1.0353399658203124	-0.016276100158691405	-0.04771120071411133	1.051989990234375	-0.018474700927734376	-0.017340599060058595	1.064050048828125	0.001800680041313171	-0.070125	0.9433920288085937	-0.0054004302024841305	-0.061842098236083984	0.9622310180664062	-0.014412199974060059	-0.05338100051879883	0.9804340209960938	-0.023847900390625	-0.03581430053710938	1.0118099975585937	-0.000435207992792129	-0.030129800796508788	0.9210869750976562	-0.007948450088500977	-0.027035200119018554	0.9440859985351563	-0.019470600128173827	-0.022868499755859376	0.9689010009765625	-0.02708989906311035	-0.015295499801635743	1.00497998046875	0.006334849834442139	0.005921889781951904	0.9298939819335937	-0.004370110034942627	0.00633627986907959	0.9506079711914063	-0.016574399948120117	0.006531070232391358	0.972969970703125	-0.021829299926757813	0.00432928991317749	1.0056300048828124	0.01690169906616211	0.04546559906005859	0.9644710083007813	0.00565330982208252	0.03854389953613281	0.9794760131835938	-0.004416079998016358	0.03200699996948242	0.9921019897460938	-0.015767200469970703	0.020883800506591797	1.012010009765625	-0.04185010147094727	0.011197799682617188	1.0753699951171876
3	0.1	-0.009762900352478027	-0.08940149688720703	1.0185999755859374	-0.012517999649047852	-0.0686729965209961	1.035050048828125	-0.016307300567626953	-0.047592098236083985	1.051739990234375	-0.018471599578857422	-0.017240900039672852	1.0638299560546876	0.001783750057220459	-0.06986810302734375	0.9431610107421875	-0.005391260147094726	-0.06161090087890625	0.9619520263671875	-0.014432100296020508	-0.05318080139160156	0.9801699829101562	-0.023899099349975587	-0.03570370101928711	1.011530029296875	-0.00048060199618339504	-0.02991749954223633	0.92085400390625	-0.00795920991897583	-0.02683370018005371	0.9438690185546875	-0.01945759963989258	-0.022673900604248048	0.9686279907226563	-0.027072399139404298	-0.015182399749755859	1.004719970703125	0.006179969787597656	0.006050839900970459	0.9296409912109375	-0.004454969882965088	0.006457190036773682	0.9503790283203125	-0.0166299991607666	0.006662030220031739	0.9727589721679688	-0.02184720039367676	0.004460609912872314	1.0053800048828125	0.016762699127197266	0.04559120178222656	0.9642039794921875	0.005569079875946045	0.038697898864746096	0.9792169799804687	-0.004468729972839355	0.032169998168945314	0.9918289794921875	-0.01582129955291748	0.02104010009765625	1.011780029296875	-0.041901599884033205	0.01130239963531494	1.075219970703125
4	0.13333333333333333	-0.009687829971313476	-0.08925589752197266	1.0183400268554688	-0.012513299942016602	-0.06853780364990235	1.0348699951171876	-0.016354400634765624	-0.04743059921264649	1.0516199951171874	-0.01851169967651367	-0.01711840057373047	1.0636300048828125	0.001661249995231628	-0.0694175033569336	0.9427520141601563	-0.005476540088653565	-0.06126060104370117	0.9616279907226563	-0.014456399917602539	-0.05293780136108398	0.979833984375	-0.02386039924621582	-0.035531200408935544	1.011260009765625	-0.000419631004333496	-0.029666400909423827	0.9207039794921875	-0.007897789955139161	-0.026614700317382813	0.943677001953125	-0.01942959976196289	-0.022485099792480468	0.968416015625	-0.0270393009185791	-0.015012900352478027	1.0044299926757811	0.006285349845886231	0.00627584981918335	0.9295289916992188	-0.004413839817047119	0.0066778998374938964	0.95022802734375	-0.01665999984741211	0.006870250225067139	0.9725789794921875	-0.02186840057373047	0.004637420177459717	1.00525	0.016887800216674805	0.045831501007080076	0.9642020263671875	0.005624949932098389	0.03887739944458008	0.97918798828125	-0.004458479881286621	0.03231439971923828	0.9917620239257813	-0.015823399543762207	0.021187999725341796	1.0116400146484374	-0.0419197998046875	0.011445099830627442	1.0750400390625
5	0.16666666666666666	-0.009375229835510254	-0.08904869842529296	1.01802001953125	-0.012321999549865723	-0.06833409881591797	1.03456005859375	-0.016246400833129882	-0.04729280090332031	1.05131005859375	-0.01853190040588379	-0.017011999130249023	1.06347998046875	0.0019399499893188472	-0.06916600036621094	0.942552001953125	-0.005241919994354248	-0.061032501220703125	0.961406005859375	-0.014283699989318848	-0.05272800064086914	0.9796160278320313	-0.023727500915527344	-0.03532949829101562	1.0110900268554688	-0.000275252014398574	-0.029312599182128907	0.9205230102539063	-0.007786809921264648	-0.02630459976196289	0.9435280151367188	-0.019321500778198244	-0.02221980094909668	0.9682860107421875	-0.0269158992767334	-0.014824399948120117	1.0043499755859375	0.006377260208129883	0.006676740169525146	0.9294099731445312	-0.004302919864654541	0.006998849868774414	0.9500960083007812	-0.01654290008544922	0.007115729808807373	0.9724459838867188	-0.021835399627685548	0.0048098301887512206	1.0051599731445313	0.016969400405883787	0.046205001831054686	0.9642130126953125	0.005688370227813721	0.03919290161132812	0.9791480102539063	-0.004390940189361572	0.03259560012817383	0.9917000122070313	-0.01580500030517578	0.02136709976196289	1.011530029296875	-0.042096298217773435	0.01157390022277832	1.07497998046875
6	0.2	-0.009378439903259277	-0.08894149780273437	1.0179600219726563	-0.012284099578857422	-0.068247802734375	1.0343800048828125	-0.01619269943237305	-0.04722150039672852	1.0510999755859376	-0.01848069953918457	-0.016880699157714844	1.063300048828125	0.002010869979858398	-0.06916739654541015	0.942427978515625	-0.005200520038604737	-0.061013198852539065	0.9612440185546876	-0.014258099555969237	-0.05266999816894531	0.9794530029296875	-0.023740800857543945	-0.03524750137329102	1.0109099731445312	-0.00030065301060676504	-0.02919339942932129	0.920301025390625	-0.007777100086212158	-0.026209299087524413	0.943302978515625	-0.01928420066833496	-0.022111900329589845	0.9680260009765626	-0.02683530044555664	-0.014675600051879883	1.0042100219726562	0.006324150085449219	0.00680424976348877	0.9291690063476562	-0.004353419780731201	0.007112800121307373	0.9499010009765625	-0.016542499542236327	0.007233779907226561	0.9722529907226563	-0.021785499572753907	0.004930439949035644	1.0049600219726562	0.016945600509643555	0.04629579925537109	0.9640250244140625	0.005671710014343262	0.03931219863891602	0.97893798828125	-0.0044049501419067385	0.032712001800537106	0.9914619750976562	-0.015778400421142577	0.021490800857543946	1.0113599853515625	-0.04201860046386719	0.011633899688720703	1.0746700439453125
7	0.23333333333333334	-0.009508560180664063	-0.08891670227050781	1.0177100219726563	-0.012371899604797364	-0.06826490020751953	1.0342099609375	-0.016260400772094726	-0.04719990158081055	1.0509100341796875	-0.018497100830078127	-0.016895299911499025	1.0630400390625	0.002042530059814453	-0.06917430114746094	0.942280029296875	-0.0051920700073242185	-0.06100389862060547	0.9610579833984375	-0.014262399673461913	-0.0526510009765625	0.9792919921875	-0.02370949935913086	-0.03522209930419922	1.01075	-0.00030770000815391504	-0.02922949981689453	0.9201069946289062	-0.007798429965972901	-0.026225000381469726	0.9430960083007812	-0.019326400756835938	-0.022124399185180665	0.9678350219726563	-0.026995700836181642	-0.01472309970855713	1.0039400024414062	0.00635821008682251	0.006760210037231445	0.9290269775390625	-0.004334980010986328	0.007092329978942871	0.9497369995117187	-0.016559600830078125	0.007229529857635498	0.9720859985351562	-0.021835599899291992	0.004934130191802978	1.004780029296875	0.01696139907836914	0.04625749969482422	0.9638560180664062	0.005717450141906738	0.03928329849243164	0.9787960205078124	-0.0043866000175476075	0.03270970153808594	0.9913159790039062	-0.015849200248718262	0.021503400802612305	1.0111699829101561	-0.04199610137939453	0.011640199661254883	1.0744200439453124
